<svg width="55" height="53" viewBox="0 0 55 53" fill="none" xmlns="http://www.w3.org/2000/svg">
<path d="M37.1187 34.3979C37.1187 31.7852 29.7083 29.6689 20.5671 29.6689M37.1187 34.3979C37.1187 37.0107 29.7083 39.127 20.5671 39.127C11.426 39.127 4.01563 37.0107 4.01563 34.3979M37.1187 34.3979V46.0715C37.1187 48.7647 29.7083 50.9495 20.5671 50.9495C11.426 50.9495 4.01563 48.767 4.01563 46.0715V34.3979M37.1187 34.3979C46.1605 34.3979 53.6702 32.0642 53.6702 29.6689V6.02393M20.5671 29.6689C11.426 29.6689 4.01563 31.7852 4.01563 34.3979M20.5671 29.6689C10.1208 29.6689 1.65112 27.3352 1.65112 24.9399V13.1174M20.5671 8.38843C10.1208 8.38843 1.65112 10.5047 1.65112 13.1174M1.65112 13.1174C1.65112 15.7302 10.1208 17.8464 20.5671 17.8464C20.5671 20.2417 28.2589 22.5754 37.3007 22.5754C46.3426 22.5754 53.6702 20.2417 53.6702 17.8464M53.6702 6.02393C53.6702 3.41115 46.3402 1.29492 37.3007 1.29492C28.2612 1.29492 20.9313 3.41115 20.9313 6.02393M53.6702 6.02393C53.6702 8.6367 46.3402 10.7529 37.3007 10.7529C28.2612 10.7529 20.9313 8.6367 20.9313 6.02393M20.9313 6.02393V30.0615" stroke="#6B25FF" stroke-width="2.5"/>
</svg>
