<svg width="70" height="70" viewBox="0 0 70 70" fill="none" xmlns="http://www.w3.org/2000/svg">
<path d="M37.6467 42.2893C37.6467 41.5304 37.9482 40.8025 38.4849 40.2659C39.0215 39.7292 39.7494 39.4277 40.5083 39.4277H49.093C49.8519 39.4277 50.5798 39.7292 51.1164 40.2659C51.6531 40.8025 51.9545 41.5304 51.9545 42.2893C51.9545 43.0482 51.6531 43.7761 51.1164 44.3127C50.5798 44.8494 49.8519 45.1509 49.093 45.1509H40.5083C39.7494 45.1509 39.0215 44.8494 38.4849 44.3127C37.9482 43.7761 37.6467 43.0482 37.6467 42.2893Z" fill="#6B25FF"/>
<path d="M48.5808 15.1045H20.9925C19.4415 15.1045 18.1881 15.1045 17.178 15.1875C16.1335 15.2733 15.2178 15.4536 14.3708 15.8828C13.024 16.5688 11.9291 17.6637 11.2431 19.0105C10.8139 19.8575 10.6336 20.7732 10.5478 21.8149C10.4705 22.7162 10.4619 23.8036 10.4619 25.12V44.6387C10.4619 46.1896 10.4619 47.443 10.5449 48.4531C10.6307 49.4976 10.811 50.4133 11.2403 51.2603C11.9267 52.6061 13.0216 53.6999 14.3679 54.3852C15.215 54.8172 16.1307 54.9975 17.1723 55.0834C18.1881 55.1664 19.4415 55.1664 20.9925 55.1664H48.5836C50.1346 55.1664 51.388 55.1664 52.3981 55.0834C53.4426 54.9975 54.3583 54.8172 55.2053 54.3852C56.5506 53.6994 57.6444 52.6056 58.3301 51.2603C58.7622 50.4133 58.9425 49.4976 59.0284 48.456C59.1113 47.4401 59.1113 46.1896 59.1113 44.6387V25.12C59.1113 23.8036 59.1027 22.7162 59.0284 21.8177C58.9425 20.7732 58.7622 19.8575 58.3301 19.0105C57.6449 17.6642 56.551 16.5693 55.2053 15.8828C54.3583 15.4536 53.4426 15.2733 52.401 15.1875C51.3823 15.1045 50.1317 15.1045 48.5808 15.1045ZM56.2469 25.12H13.3235C13.3235 23.7951 13.3321 22.825 13.3979 22.0495C13.4666 21.1853 13.5982 20.6874 13.7899 20.3097C14.2016 19.5013 14.8587 18.8441 15.6671 18.4325C16.0448 18.2408 16.5427 18.1091 17.4069 18.0405C18.2911 17.9661 19.4243 17.9661 21.0497 17.9661H48.5207C50.1461 17.9661 51.2821 17.9661 52.1635 18.0405C53.0277 18.1091 53.5256 18.2408 53.9033 18.4325C54.7117 18.8441 55.3688 19.5013 55.7805 20.3097C55.9722 20.6874 56.1038 21.1853 56.1725 22.0495C56.2383 22.825 56.2469 23.7951 56.2469 25.12ZM13.3235 30.8431H56.2469V44.5786C56.2469 46.204 56.2469 47.34 56.1725 48.2214C56.1038 49.0855 55.9722 49.5835 55.7805 49.9612C55.3688 50.7696 54.7117 51.4267 53.9033 51.8384C53.5256 52.0301 53.0277 52.1617 52.1635 52.2304C51.2821 52.3048 50.1461 52.3048 48.5207 52.3048H21.0497C19.4243 52.3048 18.2911 52.3048 17.4069 52.2304C16.5427 52.1617 16.0448 52.0301 15.6671 51.8384C14.8587 51.4267 14.2016 50.7696 13.7899 49.9612C13.5982 49.5835 13.4666 49.0855 13.3979 48.2214C13.3235 47.34 13.3235 46.204 13.3235 44.5786V30.8431Z" fill="#6B25FF"/>
</svg>
